<svg width="28" height="28" viewBox="0 0 28 28" fill="none" xmlns="http://www.w3.org/2000/svg">
<path d="M24.1956 14.7769H26.0706V24.7712C26.0696 25.5775 25.7489 26.3505 25.1788 26.9206C24.6086 27.4908 23.8357 27.8115 23.0294 27.8125H3.04125C2.23496 27.8115 1.46199 27.4908 0.891858 26.9206C0.321728 26.3505 0.000992352 25.5775 0 24.7712V4.78125C0.00148824 3.97529 0.322442 3.20279 0.892519 2.63307C1.4626 2.06334 2.23529 1.74287 3.04125 1.74187H13.0356V3.61688H3.04125C2.73237 3.6172 2.4362 3.73993 2.21761 3.95816C1.99902 4.1764 1.87583 4.47237 1.875 4.78125V24.7712C1.87533 25.0805 1.99831 25.3769 2.21695 25.5955C2.4356 25.8142 2.73204 25.9372 3.04125 25.9375H23.0294C23.3386 25.9372 23.635 25.8142 23.8537 25.5955C24.0723 25.3769 24.1953 25.0805 24.1956 24.7712V14.7769ZM19.8831 0V1.875H24.5331L13.4619 12.9487L14.7875 14.2744L25.8613 3.20062V7.85063H27.7363V0H19.8831Z" fill="black"/>
</svg>
